<svg width="1234" height="884" viewBox="0 0 1234 884" fill="none" xmlns="http://www.w3.org/2000/svg">
<path d="M465.881 336.027C467.066 338.728 464.828 345.748 463.786 348.484C463.012 346.231 465.23 338.685 465.881 336.027Z" fill="#B22026" fill-opacity="0.572549"/>
<path d="M299.303 188.008C318.779 198.117 337.721 209.071 357.17 219.224C367.356 224.698 378.643 230.352 389.03 235.493L389.815 235.436L390.266 235.763C385.67 231.117 359.827 220.999 358.107 216.709C367.557 221.848 386.027 233.22 396.49 232.534C399.06 230.324 397.051 230.037 398.69 229.669C398.92 233.738 398.606 232.601 401.939 235.001C409.238 240.256 417.073 240.83 425.859 241.816C423.663 242.796 422.791 242.731 420.429 242.928C415.064 242.574 410.439 241.878 405.127 241.1C425.383 254.759 449.64 266.618 471.393 277.872C484.151 284.472 515.938 308.036 528.295 308.496L528.672 309.153C531.089 312.157 556.665 328.835 562.102 328.93C568.128 329.034 570.557 328.465 576.017 325.921L576.876 326.898C573.549 328.652 572.154 329.348 568.607 330.533C565.424 331.597 562.235 330.648 561.137 332.243L561.876 333.973C565.945 334.625 565.081 329.895 571.853 336.587C574.142 338.85 581.767 341.247 585.129 342.055C586.196 342.309 588.771 342.663 589.321 342.831C588.139 343.053 588.567 342.89 587.589 343.637C595.808 348.693 613.457 342.515 620.224 337.328C621.242 336.548 622.441 334.35 623.58 333.348C624.514 334.502 623.966 334.3 625.081 334.427C625.695 332.31 624.086 324.973 623.659 322.412C625.412 326.55 626.298 328.711 628.768 332.555L639.867 325.61C637.698 326.023 633.371 327.034 631.498 325.989C633.618 324.957 636.294 325.096 638.734 324.987C639.077 324.723 639.415 324.456 639.752 324.187C651.761 314.616 653.569 306.613 655.201 292.021C653.641 293.983 651.936 295.923 650.303 297.834L649.098 296.779C655.84 286.421 656.997 279.015 655.045 266.891C654.653 264.449 654.804 263.271 653.707 260.895C651.315 260.616 653.418 261.518 650.514 262.528C650.634 260.505 657.581 257.6 653.611 252.824C652.086 253.974 651.393 256.56 650.646 258.482L649.61 258.071C655.936 240.287 654.81 224.997 654.225 206.527C654.28 205.857 657.491 195.439 657.666 195.133L658.226 195.696C656.34 211.197 656.087 227.853 659.437 243.164C661.07 250.659 666.728 256.623 672.627 261.103L671.578 261.765C667.885 260.082 663.818 258.11 660.04 256.727C658.642 269.288 656.84 282.598 665.426 293.339C667.222 295.538 669.355 297.438 671.747 298.965L671.012 299.734C668.548 298.301 662.878 294.731 660.431 294.147C657.599 297.307 662.932 309.292 664.854 312.4C669.265 319.541 678.255 328.889 686.106 331.668C686.684 331.874 688.678 330.234 689.631 330.041C690.227 333.488 689.329 333.511 691.107 335.799L693.288 336.598C694.571 334.472 692.643 332.118 693.921 331.638C695.059 333.357 695.083 334.711 695.403 336.759C700.79 340.438 702.669 341.383 708.93 343.101L707.996 344.065C699.09 341.651 692.059 338.043 684.406 333.186C682.063 331.7 676.736 327.24 674.561 326.789L672.928 328.951C666.632 323.405 663.661 320.682 656.075 316.947C652.972 318.907 650.544 320.875 647.224 322.772C650.104 318.898 654.786 318.611 655.346 312.874L654.593 312.844C651.622 314.868 647.844 319.411 645.32 322.213C641.614 325.717 637.818 329.451 633.896 332.68C636.221 331.542 638.529 330.367 640.819 329.159C629.907 338.831 620.152 343.644 606.673 349.311L605.986 347.174L606.197 346.671C601.62 347.52 595.345 347.967 592.349 351.344L592.204 352.919L590.26 354.264C589.082 352.846 588.798 351.959 587.301 351.646C587.164 353.454 587.491 353.388 588.358 355.298L586.493 355.814L585.8 355.133L585.282 356.693L583.949 356.542C583.803 353.206 582.191 349.324 580.797 346.336C579.254 345.132 576.034 342.508 574.233 342.397C574.689 343.755 574.761 343.321 574.574 344.577C570.865 342.911 568.043 337.538 565.245 336.409L564.043 337.828L563.259 337.892C562.677 336.563 562.36 335.48 561.3 334.51C560.796 336.191 562.225 340.31 562.77 342.266L561.271 342.274C560.911 340.595 560.382 338.955 559.692 337.383C555.722 328.478 537.691 319.83 528.63 316.461C528.902 318.33 529.577 320.887 530.015 322.784L528.732 322.914C525.628 314.226 524.634 313.05 516.474 308.349C502.543 300.323 488.632 291.171 473.676 285.171L471.49 285.915C470.124 284.575 467.905 281.11 466.545 280.915L466.889 282.37L466.32 283.204C460.888 275.415 410.208 249.816 399.556 245.826C397.77 248.842 397.218 249.697 396.161 253.019C395.334 249.967 396.298 248.791 394.767 245.597L394.036 245.352C392.535 247.679 392.22 250.581 391.683 253.34L390.74 242.167C383.345 233.714 354.669 219.509 343.721 213.565C328.675 205.423 313.706 197.141 298.816 188.719L299.303 188.008ZM668.626 323.192C666.023 319.405 662.739 314.11 658.793 311.87C659.684 316.649 664.023 321.765 668.626 323.192ZM656.973 308.967C658.684 305.348 658.997 302.439 657.497 298.68C656.419 301.784 655.37 304.357 655.906 307.682L656.973 308.967Z" fill="#A81C22"/>
<path d="M658.792 311.869C662.739 314.11 666.023 319.405 668.625 323.192C664.022 321.765 659.684 316.648 658.792 311.869Z" fill="#A31A20" fill-opacity="0.0196078"/>
<path d="M657.496 298.68C658.997 302.439 658.683 305.349 656.972 308.967L655.906 307.682C655.369 304.357 656.418 301.784 657.496 298.68Z" fill="#AD1D24" fill-opacity="0.0235294"/>
<path d="M579.887 432.835C580.097 434.046 580.108 433.929 580.554 435.085C583.288 433.459 585.772 425.617 587.038 422.354L588.18 423.105C586.712 427.882 585.065 432.903 583.896 437.738C583.497 439.779 582.841 441.451 583.744 443.17C591.021 447.191 599.449 448.952 607.649 453.592L608.33 453.28C602.678 448.446 591.066 443.802 586.878 439.467C604.612 446.081 616.247 460.32 633.697 465.518L631.558 466.5C628.461 465.927 624.134 464.909 621.134 465.22L620.332 465.812L620.525 467.068L620.423 467.915L619.989 467.479C617.982 465.272 614.198 460.704 611.83 459.394C610.957 460.542 610.216 462.402 609.354 463.074C609.143 461.28 609.583 460.66 610.276 458.913C606.54 453.388 594.841 448.588 588.196 448.889C586.729 450.576 590.27 457.452 591.213 459.494C581.12 448.393 574.511 452.322 562.73 457.571C568.982 465.685 573.044 470.803 576.713 480.71C578.527 485.61 580.421 492.335 582.393 496.892C587.574 491.845 591.135 488.571 593.881 481.651L594.78 484.149L594.573 485.306C597.07 484.014 599.307 479.873 600.567 480.011C598.967 482.527 593.848 488.493 593.715 490.54L594.648 491.602C591.386 493.645 584.277 498.241 583.344 502.252C584.334 503.406 583.741 503.055 585.109 503.45C587.699 501.597 586.473 498.044 588.598 498.311C588.557 500.375 587.672 502.047 588.813 502.872C596.254 508.253 601.826 509.79 608.643 516.342L607.908 517.085C597.363 507.478 590.119 506.227 576.37 509.547L569.557 516.561L568.256 515.318C574.872 505.652 578.65 497.182 576.58 485.124C574.323 471.983 563.577 459.674 549.259 462.787C544.35 463.854 532.871 470.68 529.589 474.492L532.679 472.517C531.07 475.058 529.073 476.088 526.406 477.425C537.504 492.511 548.855 508.8 546.17 528.888C545.129 527.061 546.288 525.647 545.113 523.195C543.757 511.18 541.389 499.086 532.947 489.771C518.233 473.538 499.79 487.307 485.126 495.519C479.385 498.734 476.901 499.957 471.978 504.628L471.237 506.199C455.625 508.406 449.475 514.015 435.572 520.418C420.885 527.182 403.554 532.354 391.193 543.298L390.07 541.93L389.361 541.47C387.853 542.193 386.921 542.433 386.044 543.842C386.548 544.891 386.519 544.835 387.352 545.655C386.395 546.51 385.869 546.425 384.586 546.552C385.024 547.254 395.708 552.483 398.238 554.279L397.645 554.951C382.922 546.957 373.356 548.445 358.312 554.904C348.627 559.063 339.937 562.942 344.542 575.273L342.504 578.663C338.498 572.87 337.72 571.436 330.947 568.865C319.674 572.001 312.798 576.749 302.919 580.366C304.072 577.644 304.172 578.523 303.577 576.129C316.847 568.215 329.677 568.38 335.988 551.777L337.09 551.851C336.366 554.114 335.843 555.96 335.259 558.265C336.141 559.277 335.577 558.89 337.25 559.042C339.592 557.926 339.057 556.44 340.929 554.96C341.557 556.883 340.962 556.324 342.388 557.051C350.048 555.753 374.414 544.817 380.142 538.975C381.999 538.64 383.842 538.226 385.664 537.734C403.219 532.922 428.104 524.899 437.42 508.541L438.05 511.239L438.62 512.004C450.107 506.221 457.351 508.795 469.055 497.243C481.654 494.877 490.93 490.531 502.209 484.574C510.483 480.205 514.235 478.319 517.645 469.498L519.27 470.511C520.893 472.253 521.337 473.25 523.75 473.001C524.748 471.222 524.81 470.895 526.39 469.707C545.355 467.812 556.642 455.066 556.497 436.15L557.844 434.736C558.385 440.857 559.019 447.357 558.518 453.492C564.743 450.58 570.337 448.334 572.975 441.388C573.082 441.102 573.182 440.814 573.276 440.523L574.842 443.574C578.718 442.148 578.911 436.328 578.835 432.839L579.887 432.835Z" fill="#A81C22" fill-opacity="0.988235"/>
<path d="M742.828 395.723L743.419 396.505C739.984 402.622 738.231 404.505 736.514 411.437L736.098 411.097C735.236 406.57 739.37 398.716 742.828 395.723Z" fill="#A31A20" fill-opacity="0.968627"/>
<path d="M733.706 382.944C730.621 380.029 726.837 375.169 725.734 371.033C729.187 374.279 731.272 378.851 734.76 382.399L733.706 382.944Z" fill="#B22026" fill-opacity="0.894118"/>
<path d="M734.76 382.4C736.454 383.686 738.231 384.56 738.936 386.265C736.887 385.933 735.273 384.379 733.706 382.945L734.76 382.4Z" fill="#B22026" fill-opacity="0.662745"/>
<path d="M964.31 333.057C966.822 335.189 967.943 335.956 970.757 337.685C977.065 337.099 982.693 335.936 988.905 334.738L989.424 335.623L986.212 336.444L986.019 337.165L986.875 338.078C989.038 337.819 993.967 335.907 995.274 337.025L994.846 337.167C989.737 338.833 984.682 339.406 979.638 341.535C967.588 346.622 964.165 356.788 961.954 368.743L960.695 366.785C961.321 360.502 961.827 355.072 962.014 348.772C949.373 349.804 936.515 352.373 924.102 355.023C908.4 358.373 895.626 360.231 884.431 372.791L883.696 371.565C885.528 368.989 887.607 366.197 889.288 363.552C884.594 366.951 883.13 368.152 880.37 373.184L879.532 372.324C880.81 369.667 882.045 366.896 883.606 364.403C877.412 365.334 872.055 367.363 866.656 368.149C847.851 370.888 832.125 372.53 819.978 389.182C812.132 399.934 806.264 413.799 803.793 427.053L802.468 425.997C807.758 405.359 814.151 397.086 821.116 378.445C794.556 378.653 776.757 383.838 767.237 410.634L766.02 409.87C767.906 403.859 775.811 390.425 779.433 385.058C773.853 385.409 768.268 386.057 762.706 386.645C759.32 389.173 756.416 392.711 753.981 396.134L752.903 395.6C753.74 393.662 755.072 390.925 754.494 388.932C752.21 388.769 749.709 390.735 747.625 392.077C748.751 390.294 749.969 389.616 751.674 388.374C748.306 388.523 740.159 390.058 738.032 389.149C739.484 387.389 752.939 386.038 756.982 385.046C747.293 379.515 743.365 370.493 739.557 360.58L740.93 360.649C743.774 368.077 746.974 376.817 754.994 381.453C759.169 383.865 779.059 387.316 778.553 377.272C778.523 376.682 775.962 373.344 775.299 372.549L775.998 371.716C777.944 373.997 779.613 375.445 781.837 377.441C790.911 379.222 799.268 379.117 808.276 376.828C811.566 375.992 821.743 372.735 823.689 370.302L823.219 369.291L823.737 367.7C842.32 377.41 856.281 364.251 874.519 361.92C878.098 361.463 880.34 360.7 883.063 358.283C883.449 357.746 885.299 356.732 885.992 356.33L886.257 354.129C892.433 357.568 898.82 358.534 906.574 356.22C923.12 351.287 941.998 346.861 958.308 341.198C960.267 340.517 958.188 338.388 959.507 336.281L961.14 338.309L962.068 338.199C963.749 335.957 963.767 336.627 963.924 334.268L964.31 333.057Z" fill="#A81C22" fill-opacity="0.988235"/>
<path d="M452.984 355.553L452.893 358.412C445.69 370.658 436.941 381.926 426.861 391.938C432.689 392.73 438.422 393.572 444.322 393.575C445.099 391.978 445.891 389.578 447.158 388.829C447.507 390.44 447.869 392.691 449.605 393.216C464.311 397.661 484.9 399.592 498.865 394.997C500.43 394.484 501.966 393.888 503.469 393.212C503.435 395.585 502.922 396 505.032 397.569C506.91 397.944 510.833 398.849 512.572 399.034L514.952 400.229C513.954 400.363 513.605 400.637 512.807 401.231C510.513 401.953 508.91 402.149 507.447 403.971C507.407 404.212 518.625 434.344 519.766 438.474L518.321 438.936C515.78 428.177 511.672 415.867 503.206 408.302C500.039 405.453 496.293 403.322 492.225 402.056C478.283 397.786 439.028 397.991 424.012 398.927L423.554 398.714C422.692 397.7 416.306 397.485 412.847 396.438L412.003 398.068C393.242 391.999 336.315 390.422 315.169 390.281L316.553 395.071L315.745 396.274C314.824 393.996 314.321 392.883 312.237 391.708C310.354 391.583 310.114 391.457 308.504 392.274L306.763 393.286C296.473 385.49 286.656 385.302 273.984 383.928L277.659 383.412C279.719 383.547 283.523 383.921 285.447 383.908C288.037 384.451 296.654 385.063 298.879 383.648C296.216 382.842 293.595 382.918 290.795 382.808L284.217 382.167L286.096 381.125C295.775 382.396 301.026 381.79 310.267 378.06L311.512 380.375C311.627 380.522 311.713 380.698 311.858 380.816C318.358 386.092 386.287 391.417 397.91 391.592C403.443 391.723 408.975 391.241 414.402 390.153C432.965 386.377 443.383 370.211 452.984 355.553Z" fill="#AA1C23"/>
<path d="M801.775 546.996L802.371 547.854C801.239 559.808 810.066 569.838 817.634 578.71C830.498 593.802 856.045 622.862 871.699 632.931L871.241 633.546C869.042 632.919 868.229 632.546 866.162 631.54L865.548 631.889C866.843 633.643 869.404 634.992 871.561 635.191C874.369 632.455 877.568 624.375 879.864 620.59C890.481 603.103 901.76 586.674 914.468 570.614L915.402 570.843C914.305 573.584 907.972 581.118 905.671 584.551C893.722 602.371 876.447 626.616 884.877 648.912C888.613 658.789 902.947 670.72 903.791 673.612C901.67 672.287 900.278 670.389 898.537 668.605C889.878 659.795 889.583 656.915 877.845 652.522C890.234 664.399 902.875 678.674 914.968 691.106C920.716 697.023 933.086 709.394 937.888 715.444C924.62 703.688 880.231 653.926 868.614 649.376C861.113 646.442 850.701 647.785 842.796 648.026C848.586 646.514 852.593 645.725 858.751 645.851C861.42 645.911 866.168 647.466 868.06 647.038C867.729 645.586 866.536 644.887 865.343 643.869C863.529 643.236 862.963 643.507 860.986 643.85L859.432 643.206L859.528 642.398C861.854 642.374 863.631 642.44 865.933 641.946L866.391 641.229C862.951 633.98 847.742 619.114 841.494 612.046C831.992 601.302 799.328 560.378 788.332 556.435C785.554 555.439 780.132 556.003 777.944 554.547C782.005 553.704 786.139 555.403 789.483 554.413C789.688 552.801 789.61 553.305 788.278 551.534C792.231 550.271 794.351 551.014 796.376 555.041L797.545 555.105L797.949 554.588C798.533 555.33 800.594 559.165 801.208 560.252C801.07 555.179 801.07 552.001 801.775 546.996ZM874.682 635.896C875.857 638.686 876.851 641.247 878.418 643.844L879.442 644.688C879.852 643.423 879.605 643.393 879.544 642.163C879.129 633.86 882.605 625.55 885.329 617.843C885.943 616.107 887.42 613.727 886.781 612.19C879.954 620.325 878.02 626.393 874.682 635.896ZM865.071 634.727C859.281 623.579 848.363 614.679 839.976 605.496C837.873 603.188 830.823 595.529 828.317 594.514C833.396 600.22 860.655 632.389 865.071 634.727ZM875.399 644.333C873.525 638.451 873.103 638.469 867.054 636.903C869.012 642.989 868.898 643.392 875.399 644.333Z" fill="#A81C22"/>
<path d="M828.316 594.514C830.823 595.528 837.873 603.187 839.976 605.495C848.363 614.679 859.281 623.579 865.071 634.727C860.655 632.389 833.396 600.22 828.316 594.514Z" fill="#BB242A" fill-opacity="0.0156863"/>
<path d="M725.873 412.521C728.91 417.886 730.639 420.847 735.104 425.267C735.092 423.387 734.869 420.924 735.616 419.296C736.436 422.079 736.484 423.396 736.731 426.273C739.436 428.168 745.365 432.494 748.384 432.884L748.836 432.509L749.493 432.092C753.084 434.723 753.921 435.252 758.031 437.021L762.254 422.638L763.616 422.974C763.158 428.658 763.55 433.192 764.231 438.856C774.402 447.108 784.066 449.976 796.334 453.659C798.19 444.573 800.088 434.926 802.468 425.995L803.793 427.052C802.082 438.001 801.558 446.43 805.27 457.136C815.121 465.727 814.754 463.628 826.937 466.627C833.517 468.245 842.76 476.147 850.556 475.693C852.075 475.745 852.876 473.595 853.346 472.463C855.449 474.741 853.455 475.188 856.07 476.439C856.775 476.025 856.967 476.025 857.474 475.442L858.787 475.328C859.492 478.11 859.341 478.528 861.86 480.231C866.512 483.375 872.109 485.684 877.189 488.02L875.911 488.881C864.288 484.257 850.147 482.083 838.717 488.133L837.68 487.349C841.868 483.881 843.796 483.17 848.924 481.199C848.634 481.004 848.351 480.814 848.062 480.628C826.346 466.71 826.491 480.344 817.344 495.64L817.013 495.542C822.062 481.399 832.763 472.753 814.723 466.258C799.967 460.947 794.159 461.876 781.518 471.878L781.343 469.574C784.741 465.752 788.103 461.898 791.429 458.015C781.831 450.628 764.695 440.753 752.62 446.459L751.915 445.587C753.819 444.79 756.669 443.932 757.458 442.236C755.024 441.803 753.102 443.574 751.27 444.975L751.047 443.768C752.933 442.382 754.813 441.556 756.91 440.521C748.583 437.436 744.281 435.495 735.357 434.609C731.441 436.487 729.874 437.628 726.849 440.663L726.53 438.767L730.886 433.104C720.535 436.098 714.346 439.827 706.453 447.374L705.423 446.261C710.984 438.846 725.072 431.969 733.453 427.628C732.471 426.438 731.501 424.986 730.145 424.376C728.97 425.872 729.47 425.643 727.892 426.291L724.746 424.838C725.138 424.3 725.433 424.303 726.156 423.954L727.307 423.782L727.831 422.757C727.602 419.765 725.885 416.277 724.686 413.434L725.873 412.521Z" fill="#AA1C23"/>
<path d="M557.555 527.297L559.34 528.087C557.959 529.991 553.164 538.977 552.581 539.472C548.243 539.806 549.392 541.875 547.001 545.106L547.285 545.425L548.291 546.618C535.965 553.568 512.578 581.417 501.775 593.235C509.86 591.672 513.349 591.919 521.311 594.21L520.551 594.911C512.074 593.679 503.747 593.187 496.88 599.04C488.433 606.237 478.673 614.312 470.945 622.212C460.549 632.841 439.936 648.93 433.276 661.753C435.809 662.085 438.517 662.302 440.913 663.103C438.719 664.098 437.745 663.579 436.029 664.182C417.023 669.256 378.775 708.201 363.749 722.838C362.273 721.597 362.746 722.097 362.027 720.102L363.389 720.132C365.305 717.421 367.567 715.372 370.137 713.311C383.173 702.856 394.128 690.732 406.002 679.096C415.083 670.196 424.071 663.001 429.772 651.359L431.395 652.016C431.937 652.311 432.069 652.474 432.398 652.208C453.584 635.029 475.012 613.42 494.412 594.263C498.859 589.872 502.89 582.658 504.742 579.099L506.649 580.096C506.653 580.405 506.616 580.172 506.961 580.955C515.855 574.148 512.683 572.525 517.592 567.412L518.295 568.846L519.174 568.8C529.313 559.44 539.492 549.602 543.787 536.307L545.819 537.285C547.829 536.884 555.339 529.32 557.555 527.297Z" fill="#A41A20" fill-opacity="0.980392"/>
<path d="M678.182 499.669C679.489 486.541 681.351 482.534 687.25 471.02L687.973 472.164C685.376 477.925 676.549 500.287 682.833 503.791C684.611 503.244 685.026 502.667 686.467 501.392L687.039 502.071C684.352 506.077 681.441 511.555 682.128 516.527L682.863 517.18L683.833 516.857L684.918 517.799C684.96 523.48 685.545 534.307 688.744 538.844L689.967 539.322C692.402 537.972 694.071 536.017 696.047 534.026L696.758 535.365C694.209 536.878 690.817 540.721 688.593 542.94C688.961 544.743 689.479 548.516 690.491 549.796C690.974 549.116 691.028 549.217 691.239 548.456C692.6 549.983 692.191 549.311 692.576 551.465C691.769 564.03 694.806 585.996 700.982 596.937C706.441 592.989 710.321 589.668 715.419 585.221L716.425 586.369C696.963 607.586 702.627 618.421 707.134 644.326L713.358 681.054L712.755 684.694C711.984 681.223 711.659 678.059 710.677 674.492C709.544 667.894 706.826 648.966 705.308 644.055C704.531 647.508 708.423 661.615 707.296 665.869C701.156 645.284 703.765 624.073 691.522 604.23L692.841 603.079C693.516 602.091 693.932 601.374 694.523 600.347C694.113 597.162 690.739 598.335 688.238 596.78C686.792 595.876 685.593 595.06 684.255 594.003L693.667 597.095C692.462 582.084 691.016 558.757 681.96 546.408C675.543 537.664 665.811 535.097 655.677 533.737L656.261 533.162C664.558 532.54 676.199 536.948 683.701 540.692C681.839 524.918 682.261 514.356 667.059 506.028L667.722 505.054C671.066 506.256 673.759 507.797 675.904 504.154C676.272 499.367 672.222 493.815 669.324 490.279L670.18 488.217C673.91 491.931 675.753 495.051 678.182 499.669Z" fill="#A81C22"/>
<path d="M795.394 87.2578L796.027 90.6757C794.888 110.47 800.781 120.996 812.892 135.858C809.481 136.066 799.491 118.998 794.105 118.297C792.761 119.64 793.092 120.1 792.996 122.525L792.086 123.892C791.453 121.06 790.399 116.509 788.621 114.272L787.79 114.51C779.288 130.271 752.168 189.877 750.553 206.324L749.866 208.892C747.299 208.484 747.48 208.745 746.094 210.977C737.731 221.796 726.066 253.672 724.023 267.361C723.336 266.637 723.234 265.335 722.945 264.186C719.227 268.957 718.847 268.939 715.78 274.605C714.479 275.074 715.154 275.009 713.684 274.618C714.407 271.94 717.431 264.715 716.883 262.969L715.419 261.619C728.488 250.318 737.876 221.147 741.967 204.454L740.93 202.912C742.931 201.008 744.781 199.013 746.401 196.768C752.409 188.46 782.241 117.286 780.306 109.814C780.102 109.009 777.185 109.641 776.227 109.112C778.095 106.628 779.071 106.055 782.198 106.256L783.042 107.387L784.102 106.581C784.874 106.786 785.151 106.702 785.53 107.132L788.157 105.14C788.591 104.51 790.989 102.975 791.694 102.525C792.737 100.02 792.098 99.1216 791.682 96.0834C793.321 92.7637 794.376 90.795 795.394 87.2578ZM786.531 114.03C788.664 112.717 789.863 111.508 790.881 109.272C790.899 106.826 791.212 107.734 789.736 105.847C788.549 107.876 786.47 111.652 786.531 114.03Z" fill="#A81C22"/>
<path d="M570.306 666.73C571.618 663.078 573.207 660.427 574.045 656.48L572.971 654.937L573.347 654.196L574.453 655.287C579.002 652.871 579.757 640.662 585.143 637.48L587.016 638.288C583.029 648.502 579.787 657.746 577.67 668.55C577.36 670.129 575.752 673.467 575.009 674.968C601.286 664.543 628.129 671.702 653.104 682.331C660.004 685.266 674.103 691.973 679.821 696.607C673.163 693.744 667.348 690.062 660.449 686.959C638.39 677.028 606.01 665.338 582.021 673.991C566.929 679.439 558.787 706.134 551.991 719.433C548.815 725.543 546.001 732.316 543.486 738.336L542.689 740.252C539.649 747.369 525.457 777.733 527.592 783.53L529.085 784.79C526.763 786.133 524.015 787.465 522.687 789.833L523.125 790.448C527.871 788.61 553.479 766.32 560.256 768.785C556.692 770.966 551.324 772.647 546.651 775.588C530.311 785.874 519.305 797.643 509.952 814.214L508.567 813.503C512.719 805.205 515.555 799.788 515.506 790.436L516.512 790.328L517.746 791.448L518.694 791.237C520.744 788.743 525.086 775.166 527.122 770.894C532.119 760.403 537.316 749.809 542.021 739.198L543.656 734.751L542.878 733.22L542.846 733.961C542.129 729.574 561.45 691.238 563.731 683.386C568.234 667.875 569.476 663.307 564.881 646.79L566.052 645.609C568.5 653.094 569.402 658.945 570.306 666.73Z" fill="#A81C22"/>
<path d="M516.672 115.277C523.744 127.805 529.495 139.51 541.105 148.407L540.337 149.662L537.959 148.69L537.955 149.213C539.773 150.595 543.614 152.604 544.238 153.967C543.641 154.574 543.057 155.194 542.486 155.827C542.725 158.553 544.653 163.733 546.228 165.896L546.868 165.962C546.653 164.522 546.443 163.391 546.134 161.965L546.852 161.741C553.047 179.237 561.008 194.012 570.086 210.141C575.211 219.246 577.424 226.619 586.193 232.89L583.718 233.976C584.114 234.332 586.233 236.283 586.362 236.675C590.826 250.217 597.615 268.649 607.793 278.758L607.329 280.552C608.667 287.812 614.21 300.183 620.434 304.477C620.886 304.79 621.344 305.093 621.814 305.389L621.645 306.72L619.169 306.431C618.301 307.601 618.59 306.923 618.615 308.637L617.108 309.118L616.307 309.126C614.144 313.366 613.523 318.565 611.854 322.033L610.745 321.913C618.621 301.809 608.709 296.018 602.363 279.885L602.327 280.887L600.453 282.559C598.724 269.599 590.201 250.183 581.202 240.681C580.887 244.586 580.433 247.365 579.74 251.236L578.484 250.821C578.74 249.197 578.948 247.565 579.105 245.928C580.271 234.015 573.95 222.253 568.252 212.184C561.214 199.748 554.266 187.165 545.15 176.1L545.951 175.302L547.705 177.143L547.908 176.582C545.96 172.717 544.501 170.487 542.126 166.919C539.437 162.807 539.578 162.019 535.166 160.969L534.488 160.81C533.385 159.393 533.685 156.024 533.662 154.018C533.56 152.827 533.65 152.165 532.857 151.292C532.273 151.802 531.689 152.294 531.059 152.745C530.836 145.499 519.861 123.165 515.636 116.991L516.672 115.277Z" fill="#B42127"/>
<path d="M632.19 509.773L632.045 511.127C633.413 511.733 644.777 505.361 649.302 504.616C656.864 503.371 660.148 503.203 667.722 505.054L667.059 506.028C656.358 503.955 646.964 504.738 637.486 510.936C625.634 518.682 629.123 530.969 622.122 543.293C623.303 542.276 625.96 539.873 627.153 539.135L627.834 539.962C621.338 545.547 609.667 571.366 612.897 579.103C615.162 581.559 621.965 581.51 625.478 581.641C626.014 581.662 626.55 581.676 627.087 581.682L627.779 583.304C618.85 584.946 608.812 588.577 604.058 596.638C598.536 605.996 590.053 627.809 587.016 638.288L585.143 637.481C586.227 635.227 587.437 632.359 588.226 629.967C597.842 600.852 611.595 582.424 585.657 556.838L586.236 555.908C592.086 560.592 596.749 566.856 602.78 571.121C604.606 572.416 603.19 570.663 605.275 569.97C605.564 571.946 605.636 572.525 606.287 574.392L607.245 574.383C610.987 570.647 618.796 544.873 618.308 538.148C617.681 529.499 613.535 523.065 607.908 517.086L608.643 516.343C613.306 521.293 617.916 526.293 622.471 531.344C625.544 525.005 626.888 520.47 627.153 513.517C627.261 512.327 627.315 511.045 627.388 509.845L628.171 510.421C629.943 509.964 630.165 509.308 631.352 507.743L632.19 509.773Z" fill="#AA1C23" fill-opacity="0.988235"/>
<path d="M905.833 172.856C908.774 170.351 911.353 167.227 914.016 164.353C925.368 152.116 937.117 140.247 948.445 127.992C949.053 127.33 952.283 125.822 953.235 125.375C942.606 136.835 929.616 148.778 920.391 160.912C911.25 172.941 916.185 188.501 919.131 202.461L917.902 202.534C916.492 197.02 915.112 191.265 913.413 185.833C912.19 181.918 909.027 178.849 908.28 175.073L908.93 174.223C913.118 175.021 912.401 182.009 914.492 184.643C914.48 176.247 913.709 173.44 915.372 164.376C907.876 176.442 892.373 189.624 882.117 199.824C876.074 205.835 868.663 214.663 862.8 220.102C860.709 219.223 861.396 219.574 859.956 217.32C867.825 209.625 875.435 201.669 882.774 193.465C888.33 187.233 893.397 180.508 898.952 174.308C900.724 172.33 902.158 172.959 903.411 170.185C902.652 168.747 903.001 169.222 901.097 168.472C904.887 166.855 906.37 165.797 909.822 163.447C893.409 168.769 880.37 169.583 863.818 165.354L863.318 164.652L863.403 165.21L862.505 164.626C867.403 164.311 876.833 166.34 882.636 166.49C910.154 167.201 918.077 154.976 935.364 139.147C931.628 146.015 921.12 154.806 915.251 160.551C909.22 166.455 907.876 164.161 905.833 172.856ZM861.848 218.701C867.415 213.109 900.525 180.365 901.134 175.975C897.199 180.32 861.83 216.907 861.848 218.701Z" fill="#B22026" fill-opacity="0.964706"/>
<path d="M901.133 175.975C900.525 180.364 867.415 213.108 861.848 218.701C861.83 216.907 897.199 180.319 901.133 175.975Z" fill="#A81C22" fill-opacity="0.109804"/>
<path d="M720.45 451.635L721.48 452.772C720.046 462.283 720.631 468.565 726.584 476.596C728.199 478.816 729.988 480.905 731.935 482.843C732.115 480.054 732.254 476.846 732.591 474.107L734.447 472.85C734.357 489.654 742.491 497.77 756.132 506.195C758.205 502.962 760.507 499.521 762.393 496.205L764.315 497.299C757.247 520.038 771.865 525.444 784.494 541.427C786.055 543.401 790.556 547.1 793.02 547.736C794.098 546.946 793.978 546.794 794.43 545.486L795.075 547.521L795.882 547.763C797.768 546.049 799.461 542.466 800.726 540.106L801.51 540.467C798.401 546.229 796.924 547.97 797.949 554.586L797.545 555.104L796.376 555.04C794.352 551.012 792.231 550.27 788.278 551.533C779.674 539.978 761.676 521.496 749.426 514.131C747.595 513.031 744.564 512.393 742.449 511.963L742.364 511.218C745.407 511.377 750.432 512.449 753.584 513.023C743.256 504.361 743.202 496.675 726.915 486.912L728.404 485.659C729.03 485.11 728.783 485.465 729.06 484.531C727.759 482.836 726.5 481.112 725.276 479.361C719.516 471.026 718.648 461.303 720.45 451.635Z" fill="#A81C22"/>
<path d="M786.657 274.388C803.491 279.471 801.943 270.462 807.631 270.246L806.528 272.917L805.733 273.234L808.348 274.019C801.828 281.689 803.769 280.5 800.208 288.154C799.352 288.84 799.292 288.803 798.611 289.643L798.255 289.403L797.249 289.553L796.858 292.054L796.291 288.146L795.646 287.698C789.079 290.303 768.665 309.133 765.646 316.404C762.441 324.14 763.254 333.838 764.236 341.912L762.953 342.783C761.639 334.821 760.844 326.434 759.958 318.385C752.529 322.867 746.69 328.523 740.87 334.913C740.189 338.364 739.442 341.892 738.887 345.358C738.58 346.579 738.243 348.329 737.676 349.364C737.532 345.525 737.351 341.687 737.122 337.853C732.808 340.588 729.994 344.508 726.806 348.45L725.981 347.592L727.144 346.402L726.806 345.167L728.15 344.464L727.909 344.047C726.156 345.254 722.902 348.212 720.992 347.15L722.534 345.025C721.546 344.539 711.719 344.686 707.995 344.065L708.929 343.1C717.244 343.945 723.492 342.536 730.88 337.891C731.928 337.232 733.235 336.015 733.446 334.793L733.133 333.354C737.092 332.255 736.351 331.959 736.61 328.25L737.044 328.234L738.929 331.471C747.329 327.205 753.427 319.251 759.615 312.247L760.434 311.092C775.63 303.377 784.813 289.906 796.376 277.9C792.447 277.209 790.025 276.81 786.271 275.569L786.657 274.388Z" fill="#AB1D23"/>
<path d="M919.595 503.605L920.21 503.768C929.911 506.39 954.41 517.959 962.942 515.706C963.382 513.96 963.171 513.342 962.942 511.511L963.581 511.096C964.635 513.854 964.496 514.876 966.545 516.503L967.304 516.194C967.467 514.251 967.298 513.967 966.774 512.038L967.895 511.252C972.342 522.943 976.252 523.577 986.718 529.138C1000.35 536.385 1021.04 540.975 1034.04 548.498C1030.49 548.402 1026.65 546.582 1023.31 545.231C1016.31 541.816 991.171 532.046 984.338 530.685L983.904 530.894C996.835 535.907 1009.69 541.112 1022.47 546.507L1022.24 547.216C1011.68 543.397 1000.66 538.438 990.032 534.471C970.438 527.158 961.767 528.621 945.45 541.182L944.619 540.362C950.831 535.353 956.091 531.278 961.514 525.383C948.62 532.197 952.536 530.147 942.703 539.918L942.383 539.35C946.294 534.644 949.758 531.008 952.066 525.292C944.462 518.558 936.069 514.934 927.043 510.617C923.885 509.11 918.209 506.811 915.817 504.603C929.597 509.105 944.342 516.483 958.561 520.622C960.387 521.154 962.912 523.91 964.557 525.265C966.913 525.661 967.467 525.494 969.841 525.075L970.124 524.252C964.334 517.329 964.882 522.18 959.899 519.925C946.559 513.889 932.002 509.842 918.643 504.235L919.595 503.605Z" fill="#A81C22"/>
<path d="M713.358 681.053C716.227 693.074 716.293 701.45 720.764 714.466C722.168 710.682 723.578 706.687 725.072 702.957C724.722 705.355 724.397 707.76 724.102 710.17L724.662 710.803C726.91 710.14 728.253 709.14 730.224 707.904C727.548 710.393 723.186 713.653 722.879 717.1L723.686 718.082C725.5 717.425 731.609 711.399 732.345 709.459C733.224 707.121 730.784 706.271 735.676 705.168L736.116 705.831C733.459 710.766 729.657 715.099 727.157 719.468C722.433 727.723 724.867 741.191 726.813 749.953L726.349 749.947C724.855 749.091 725.325 749.272 724.668 747.006C723.421 740.583 722.656 738.353 719.324 732.731C718.95 739.287 719.818 743.831 720.758 750.284L719.522 752.791C716.329 739.926 719.04 737.841 711.244 723.343L712.033 721.288L712.84 720.89C713.419 715.461 705.947 714.4 702.651 708.489C706.49 710.236 710.171 712.297 713.672 714.647C712.629 704.204 710.762 693.822 709.804 683.915C713.533 688.163 713.859 708.748 716.944 711.58L716.751 712.032L716.377 711.026L716.919 710.682C716.034 702.674 713.907 693.032 712.756 684.692L713.358 681.053ZM719.625 725.415C723.433 722.77 720.36 717.256 717.697 714.991C716.395 717.112 715.178 718.624 714.925 721.059C715.69 723.306 715.931 723.644 718.45 724.867C718.836 725.054 719.233 725.241 719.625 725.415Z" fill="#AD1D24"/>
<path d="M651.477 154.701L652.978 157.378C653.086 159.717 653.158 166.554 654.002 168.164L654.255 167.975L656.394 167.08L656.611 167.797C657.617 171.257 657.611 176.181 658.919 179.562C668.571 204.489 703.302 216.1 727.765 209.328C732.965 207.889 736.815 205.628 740.93 202.913L741.967 204.455C718.172 219.638 685.442 213.172 665.993 193.346C661.733 189.008 658.937 183.497 656.219 178.114C657.063 184.469 659.563 187.471 663.353 192.593L663.064 193.316L660.389 192.322C658.991 192.929 658.985 193.927 658.226 195.695L657.665 195.133C657.491 195.439 654.279 205.857 654.225 206.527C653.514 204.454 652.381 189.563 652.116 186.691C645.416 202.188 641.505 210.766 628.557 222.495L627.418 221.534C628.732 220.269 630.021 218.985 631.292 217.681C651.869 196.509 651.869 181.712 651.477 154.701Z" fill="#AD1D24" fill-opacity="0.94902"/>
<path d="M583.948 356.541L585.282 356.692C586.798 366.82 580.973 381.989 574.99 390.157C572.192 393.908 568.97 397.322 565.388 400.334C567.257 401.06 568.865 400.926 570.885 400.971L570.59 401.776L568.698 402.896C568.394 404.847 568.592 405.01 569.995 406.917C570.492 407.586 570.997 408.249 571.509 408.906L570.559 409.356C563.21 402.754 559.367 403.013 549.46 402.902C552.124 406.225 552.967 407.065 552.933 411.48L552.228 411.733L550.989 411.124C554.684 421.331 556.233 423.815 557.843 434.736L556.497 436.15C556.336 435.676 555.779 431.532 555.668 430.822C551.447 403.81 536.444 401.825 512.807 401.231C513.605 400.637 513.954 400.363 514.952 400.229L512.572 399.034C526.518 401.175 539.381 402.251 549.26 390.837L550.257 391.802C548.506 393.729 546.747 395.467 545.511 397.755L545.961 398.853C547.086 398.383 547.274 397.596 548.099 396.355C548.738 398.259 548.86 398.606 550.007 400.243C551.314 400.804 553.415 401.136 554.842 401.001C575.688 399.033 583.992 374.023 583.948 356.541Z" fill="#AD1D24" fill-opacity="0.976471"/>
<path d="M859.956 217.32C861.396 219.575 860.709 219.223 862.8 220.102C855.756 227.933 852.87 231.481 848.797 241.443L847.905 237.853C837.819 243.585 816.766 264.566 808.348 274.02L805.733 273.235L806.529 272.918C813.072 265.78 842.097 235.908 844.802 230.224C843.145 229.522 843.253 229.863 841.108 230.243C840.066 231.177 839.958 231.327 838.692 232.036C838.301 230.392 837.306 228.2 837.282 226.755C840.825 228.71 843.428 228.757 847.405 229.197C851.358 225.986 856.214 220.992 859.956 217.32Z" fill="#AD1D24"/>
<path d="M633.696 465.518C653.761 470.494 659.931 479.819 675.627 483.945C678.519 480.321 680.164 478.012 682.634 474.091L683.195 474.826C679.893 480.645 678.248 483.135 676.97 489.806C676.018 490.516 676.097 490.476 674.928 490.685L673.976 489.307L676.042 487.251L675.976 486.33C674.048 485.672 674.235 485.967 673.09 485.675C666.348 483.947 646.235 467.583 639.878 469.616L639.613 470.487C641.632 471.996 647.795 472.843 650.091 473.869C656.791 476.864 665.691 482.723 670.18 488.217L669.324 490.278C665.962 486.705 664.413 485.432 660.533 482.464C650.718 483.313 649.362 483.659 641.198 489.465C646.373 483.016 648.645 482.1 656.689 480.111C654.164 478.57 650.736 476.312 648.024 475.291C643.499 473.583 640.655 475.562 637.805 470.948C635.058 469.968 627.128 469.55 623.881 469.361C632.383 484.726 634.871 492.23 632.19 509.772L631.352 507.742C631.256 506.042 631.87 502.007 631.834 499.964C631.605 486.659 629.255 478.552 620.061 469.129C618.476 469.763 616.729 470.726 615.132 470.419C616.307 468.788 618.066 468.316 619.988 467.479L620.422 467.915L620.525 467.068C624.128 467.572 630.587 468.364 634.04 468.11L634.166 467.583L631.557 466.5L633.696 465.518Z" fill="#AD1D24" fill-opacity="0.960784"/>
<path d="M647.766 94.451L648.133 94.4414C652.261 100.751 648.2 108.598 651.863 115.404L652.05 114.107C652.472 112.656 652.767 110.246 653.008 108.682C653.972 107.028 654.147 106.069 654.683 104.209L656.189 104.719C653.116 127.274 654.846 144.683 656.394 167.078L654.255 167.974C654.496 164.09 654.267 161.818 653.918 157.907L652.978 157.377L651.477 154.7C651.393 147.951 650.098 111.783 647.41 108.566C645.163 108.489 645.326 108.863 643.187 110.167C644.12 107.971 645.711 106.235 647.212 104.347L647.766 94.451Z" fill="#A81C22" fill-opacity="0.968627"/>
<path d="M590.26 354.262L592.203 352.918C598.079 378.778 597.953 402.179 589.548 427.393C588.188 431.47 589.81 436.157 586.878 439.466L585.236 437.922C587.022 432.032 588.633 426.545 589.7 420.462L589.262 419.969L588.179 423.105L587.037 422.353C592.076 402.667 595.078 374.625 586.493 355.813L588.357 355.297C591.47 363.809 592.082 366.957 593.067 375.917C593.277 377.79 593.586 381.394 593.974 383.08C593.698 387.36 590.816 413.713 591.082 415.188C594.664 404.359 594.885 394.4 594.797 383.16C594.782 380.374 594.543 378.749 594.163 376.005C594.012 368.597 592.695 361.26 590.26 354.262Z" fill="#AD1D24" fill-opacity="0.976471"/>
<path d="M746.54 118.895C750.583 118.157 758.223 114.719 761.947 112.714C779.897 103.042 788.495 90.2661 796.653 72.0456C800.082 64.0028 802.799 55.4733 807.089 47.8466C807.421 47.2547 807.601 47.189 807.939 46.4375C804.324 59.0285 798.654 71.3273 793.894 83.5732C792.713 86.6096 787.844 92.9392 787.784 94.3529C790.574 93.0899 790.803 89.2236 793.134 88.1547C793.213 89.7184 791.514 93.4629 790.839 95.1778C785.759 98.7452 787.139 100.149 785.53 107.132C785.151 106.701 784.874 106.786 784.102 106.581C784.301 102.554 784.584 100.184 785.247 96.2028C773.727 108.579 762.941 115.438 746.546 120.278L746.54 118.895Z" fill="#AD1D24" fill-opacity="0.956863"/>
<path d="M302.918 580.366C296.213 583.034 289.594 586.57 282.867 589.182C265.457 595.941 248.682 603.579 231.842 611.623C224.375 615.191 215.835 619.144 207.919 621.325L208.62 621.036L208.691 620.614C222.024 613.244 238.625 607.387 252.231 599.661C258.742 595.965 268.874 593.359 275.907 589.849C285.066 585.278 294.312 580.405 303.576 576.129C304.172 578.523 304.071 577.644 302.918 580.366Z" fill="#BB242A" fill-opacity="0.964706"/>
<path d="M412.002 398.068L412.847 396.438C415.201 398.343 417.331 399.674 419.657 401.637C423.623 404.984 426.393 409.328 429.711 412.934C428.01 409.822 422.773 401.464 423.553 398.713L424.012 398.927C439.103 427.541 452.156 467.109 442.24 499.185C440.961 503.242 439.563 507.262 438.049 511.238L437.419 508.54C443.356 495.734 444.975 481.11 443.642 467.198C441.125 440.924 435.224 413.587 412.002 398.068Z" fill="#A31A20" fill-opacity="0.956863"/>
<path d="M643.771 98.2168L645.5 98.4542C633.142 124.768 611.83 140.47 585.182 150.606C571.304 155.884 553.608 157.352 540.338 149.664L541.106 148.408C542.082 148.878 543.066 149.333 544.056 149.775C564.138 158.684 590.803 148.247 608.504 137.507C622.712 128.887 636.968 113.511 643.771 98.2168Z" fill="#AD1D24" fill-opacity="0.933333"/>
<path d="M725.982 347.592L726.807 348.451C721.541 355.326 716.028 382.168 719.775 389.708L720.86 390.406L722.565 389.974L724.035 388.115C726.445 394.027 722.469 403.342 725.873 412.522L724.686 413.434C723.626 411.04 723.27 410.04 721.607 407.926C720.944 409.109 721.553 410.525 721.872 412.165L720.727 412.233L715.594 392.851L716.184 391.251L717.329 393.228C718.052 391.418 717.19 380.394 717.377 377.279C717.877 368.989 719.787 353.507 725.982 347.592Z" fill="#AD1D24"/>
<path d="M504.378 730.002C513.322 749.737 516.279 763.301 515.766 784.826C524.242 776.389 526.155 762.03 531.853 757.595C528.579 765.446 525.072 773.256 521.551 781.005C519.753 784.964 517.08 786.694 516.512 790.327L515.505 790.436L515.5 789.381C514.405 790.213 514.39 795.407 513.591 797.998C511.318 805.374 507.931 813.66 503.408 819.921C505.278 813.78 508.166 809.194 509.972 803.837C518.32 779.035 513.408 753.967 503.581 731.026L504.378 730.002Z" fill="#B22026" fill-opacity="0.964706"/>
<path d="M390.07 541.93L391.193 543.298C392.078 546.543 400.966 553.727 404.25 556.825C429.957 581.077 445.252 616.703 431.725 651.448C431.615 651.635 431.505 651.822 431.395 652.015L429.772 651.358C434.55 639.029 436.486 627.814 434.356 614.618C430.435 590.308 418.13 568.74 397.644 554.951L398.237 554.279L399.289 554.611C399.245 553.577 391.188 546.982 390.237 545.051C389.388 543.33 389.482 544.257 390.07 541.93Z" fill="#A31A20" fill-opacity="0.941176"/>
<path d="M847.905 237.852L848.797 241.442C842.217 272.36 852.581 308.987 869.5 334.951C872.38 339.37 875.61 343.547 879.171 347.439C878.183 350.094 878.225 348.709 877.14 350.54C859.07 322.487 845.808 295.046 844.706 260.437C844.507 254.217 846.598 244.021 847.905 237.852Z" fill="#B22026" fill-opacity="0.937255"/>
<path d="M674.561 326.787C676.736 327.238 682.062 331.698 684.406 333.185C692.058 338.041 699.09 341.649 707.995 344.064C711.719 344.685 721.547 344.539 722.535 345.024L720.992 347.149C722.902 348.212 726.156 345.253 727.909 344.047L728.15 344.463L726.807 345.166L727.144 346.401L725.981 347.591C719.787 353.506 717.877 368.988 717.377 377.278C717.19 380.394 718.052 391.417 717.329 393.227L716.184 391.25C716.744 387.131 716.395 375.707 716.359 371.024C717.015 364.805 720.679 354.2 719.022 349.746C718.154 347.406 711.514 347.054 707.953 346.034C699.65 343.659 678.61 334.06 674.561 326.787Z" fill="#B22026" fill-opacity="0.0196078"/>
<path d="M880.37 373.184C880.087 374.113 879.96 374.965 879.779 375.918C880.996 375.693 882.702 372.87 883.696 371.564L884.431 372.791C865.342 396.551 850.906 445.515 858.787 475.329L857.473 475.443C850.466 436.163 862.824 407.764 879.532 372.324L880.37 373.184Z" fill="#A31A20" fill-opacity="0.945098"/>
<path d="M347.659 733.358C349.592 731.424 350.84 729.99 353.243 728.67L353.861 729.098L353.077 731.032L320.129 761.354C316.509 764.675 309.259 771.876 305.717 774.364C304.833 772.352 307.028 771.568 308.512 770.116C311.207 767.561 314.566 764.608 316.583 761.505C322.87 751.833 331.955 745.41 339.752 736.925L340.884 737.094C338.167 741.861 335.701 741.668 334.862 745.41L335.524 745.512C339.537 742.09 343.93 737.251 347.659 733.358Z" fill="#BB242A" fill-opacity="0.0196078"/>
<path d="M674.561 326.787C678.61 334.06 699.65 343.659 707.953 346.034C711.514 347.054 718.154 347.406 719.022 349.746C720.679 354.2 717.016 364.805 716.359 371.024C715.015 377.394 716.648 386.071 715.377 390.724C713.858 380.14 715.461 364.812 716.443 354.092C715.154 352.615 713.744 350.773 712.484 349.222C695.656 344.659 686.575 339.622 672.928 328.95L674.561 326.787Z" fill="#A81C22" fill-opacity="0.980392"/>
<path d="M746.094 210.977C747.48 208.745 747.299 208.484 749.866 208.892L750.553 206.324C750.571 210.943 750.372 216.636 751.071 221.149C754.548 243.55 767.55 262.496 786.657 274.388L786.271 275.569C762.899 259.948 755.795 244.623 746.877 219.595C746.558 218.694 746.052 218.861 745.184 218.716C742.997 220.236 741.846 222.644 740.412 224.975C739.364 223.229 745.564 215.672 746.094 210.977Z" fill="#B22026" fill-opacity="0.929412"/>
<path d="M486.256 510.112C483.377 507.567 480.731 505.548 478.892 502.146L479.271 501.814C482.793 504.516 485.189 507.505 488.244 510.527C499.823 521.978 508.224 534.494 510.439 551.038C511.672 560.242 510.41 571.444 506.649 580.095L504.742 579.098C506.294 575.2 507.717 571.13 508.394 566.985C512.492 541.892 498.19 510.438 471.236 506.198L471.977 504.627C478.629 505.658 480.421 506.647 486.256 510.112Z" fill="#AD1D24" fill-opacity="0.952941"/>
<path d="M318.765 406.715C332.008 427.424 345.67 486.159 341.9 509.781C340.468 500.258 340.193 490.446 339.019 480.865C335.696 453.774 330.321 431.228 317.643 407.117L318.765 406.715Z" fill="#BB242A" fill-opacity="0.956863"/>
<path d="M391.683 253.339C392.22 250.581 392.535 247.679 394.036 245.352L394.766 245.597C396.298 248.79 395.333 249.966 396.161 253.018C389.306 274.38 383.422 297.068 371.125 315.804L370.767 315.79C372.316 310.835 375.935 303.551 378.266 298.667C384.491 285.627 390.845 268.68 391.646 254.066L391.683 253.339Z" fill="#AD1D24" fill-opacity="0.972549"/>
<path d="M1023.31 545.23C1026.65 546.581 1030.49 548.401 1034.04 548.498C1036.63 547.85 1057.66 556.984 1060.92 559.059C1058.44 559.681 1058.64 559.194 1057.46 560.785L1057.35 561.74C1048.37 557.916 1029.58 551.419 1022.24 547.215L1022.47 546.506L1023.31 545.23Z" fill="#BB242A" fill-opacity="0.0235294"/>
<path d="M305.718 774.365C309.259 771.877 316.509 764.676 320.129 761.356L353.077 731.033L354.427 732.148L350.119 736.734C356.877 735.504 359.967 735.197 366.32 737.957C360.23 737.867 356.899 737.722 350.622 738.909C339.947 740.934 305.094 780.403 299.794 780.681C301.822 777.601 304.16 776.372 305.718 774.365Z" fill="#B22026" fill-opacity="0.909804"/>
<path d="M530.015 322.783C533.979 347.376 527.022 367.818 513.1 387.983C511.048 390.956 507.577 395.19 505.032 397.57C502.921 396.001 503.435 395.586 503.468 393.213C524.346 377.33 532.422 348.079 528.731 322.913L530.015 322.783Z" fill="#B22026" fill-opacity="0.945098"/>
<path d="M229.355 378.203C238.693 379.46 244.696 378.696 253.965 378.706C259.19 378.711 266.176 380.231 270.796 380.166L272.907 382.447C274.374 382.791 276.188 383.286 277.659 383.412L273.984 383.928C259.917 383.208 238.011 381.475 224.16 379.368C225.818 378.03 227.16 378.268 229.355 378.203Z" fill="#B22026" fill-opacity="0.988235"/>
<path d="M654.683 104.211C655.888 102.948 656.532 101.751 658.292 101.756C661.22 101.765 666.824 104.571 669.511 105.908C694.408 118.28 718.226 127.718 746.54 118.896L746.546 120.279C718.63 130.951 691.239 117.552 666.601 105.955C662.726 104.13 659.877 101.769 656.189 104.72L654.683 104.211Z" fill="#AD1D24" fill-opacity="0.941176"/>
<path d="M310.268 378.06C328.685 369.73 343.828 353.087 355.65 337.091C357.827 334.145 365.261 323.7 367.485 321.991L367.111 322.988L367.056 322.445L367.659 321.98C358.721 337.704 343.922 356.564 329.621 367.985C324.848 371.797 315.41 376.496 311.512 380.374L310.268 378.06Z" fill="#A31A20" fill-opacity="0.937255"/>
<path d="M485.12 61.6855C495.689 79.5602 505.889 97.4764 516.672 115.279L515.636 116.992C508.404 110.695 505.552 101.417 501.076 93.2173C495.509 83.0191 489.725 72.9516 484.249 62.7039L485.12 61.6855Z" fill="#BB242A" fill-opacity="0.858824"/>
<path d="M796.857 292.054L797.249 289.553L798.255 289.403L798.611 289.643C799.292 288.803 799.352 288.84 800.208 288.154C796.918 312.23 803.395 343.54 818.639 362.866L817.368 363.581C813.632 362.334 811.421 355.583 809.661 352.065C799.924 332.612 798.243 313.423 796.857 292.054Z" fill="#AD1D24" fill-opacity="0.964706"/>
<path d="M647.211 80.443L648.796 77.8555C648.862 79.944 648.615 87.744 649.109 88.8419C650.435 86.7889 650.718 85.3294 651.369 83.0179C653.092 86.8901 657.322 94.358 655.689 98.3062C653.947 102.51 653.206 104.025 653.007 108.682C652.766 110.247 652.471 112.656 652.049 114.107C650.302 105.447 651.519 103.413 652.218 94.8774C652.363 93.0884 651.893 92.681 650.905 91.6982C648.952 92.3321 649.543 92.1995 648.133 94.4418L647.765 94.4514C646.988 95.7753 646.193 97.0823 645.5 98.4532L643.771 98.2158C646.072 91.1125 647.03 88.0778 647.211 80.443Z" fill="#A81C22"/>
<path d="M707.05 440.783L707.996 441.72C706.266 443.542 704.025 445.627 702.868 447.782C704.284 447.389 704.332 447.206 705.423 446.261L706.453 447.374C698.078 456.26 693.999 461.387 687.973 472.163L687.25 471.018C687.817 469.656 688.576 468.655 688.202 467.626C686.142 470.225 684.961 472.008 683.195 474.826L682.635 474.09C691.112 459.45 694.722 452.528 707.05 440.783Z" fill="#AD1D24"/>
<path d="M578.484 250.822L579.74 251.237C579.585 252.366 579.396 256.429 579.152 257.077C571.029 278.712 553.099 305.908 528.672 309.152L528.295 308.496C531.03 307.51 534.252 307.211 536.9 305.959C558.005 295.976 573.421 272.504 578.484 250.822Z" fill="#AD1D24" fill-opacity="0.905882"/>
<path d="M696.048 534.025C702.82 527.991 708.785 522.66 716.956 518.309C724.716 514.177 733.67 511.499 741.232 506.941C742.196 506.361 742.841 504.539 744.058 503.424L744.799 504.386L744.576 505.829C742.949 507.881 740.467 509.069 738.159 510.444L738.508 510.998L742.365 511.218L742.449 511.963C732.604 511.831 725.283 515.485 716.847 520.093C704.037 527.088 694.788 536.595 692.577 551.464C692.191 549.31 692.601 549.982 691.239 548.455C692.517 543.018 696.746 537.594 696.759 535.364L696.048 534.025Z" fill="#AD1D24" fill-opacity="0.92549"/>
<path d="M721.017 763.957C724.186 768.796 722.692 771.435 724.306 774.514L726.162 773.556C727.325 774.43 728.241 775.195 729.35 776.147L730.507 775.876C731.272 773.737 731.001 771.574 730.934 769.26C733.248 777.901 733.26 783.728 731.489 792.212L730.615 791.923C726.433 786.211 721.812 771.194 721.017 763.957Z" fill="#BB242A" fill-opacity="0.294118"/>
<path d="M531.482 157.633L533.086 160.194C532.487 166.89 531.465 170.906 529.238 177.269C527.797 180.694 526.42 184.146 525.108 187.622L530.231 180.158L531.279 180.496C525.483 189.597 515.104 205.404 506.699 211.876C506.626 211.135 508.265 209.475 508.832 208.799C522.051 193.071 529.624 178.338 531.482 157.633Z" fill="#B22026" fill-opacity="0.952941"/>
<path d="M355.757 681.096C356.119 682.06 356.742 683.59 357.013 684.524C355.829 698.505 351.212 719.535 345.93 732.527L346.342 732.937L346.741 732.828L347.659 733.358C343.931 737.251 339.537 742.09 335.524 745.513L334.862 745.41C335.702 741.668 338.167 741.861 340.884 737.094C349.766 728.218 354.45 693.461 355.757 681.096Z" fill="#A31A20" fill-opacity="0.945098"/>
<path d="M915.817 504.602C917.071 503.925 917.239 504.081 918.643 504.234C932.002 509.841 946.559 513.889 959.899 519.924C964.882 522.179 964.334 517.329 970.124 524.251L969.841 525.075C967.467 525.493 966.913 525.661 964.557 525.264C962.912 523.909 960.387 521.153 958.561 520.621C944.342 516.483 929.597 509.105 915.817 504.602Z" fill="#A31A20" fill-opacity="0.0196078"/>
<path d="M724.668 747.008C725.325 749.274 724.855 749.093 726.349 749.948L726.813 749.954C727.355 751.78 728.157 754.197 728.44 756.023C728.452 757.698 728.892 760.18 727.747 761.331C725.602 763.483 724.246 764.109 721.517 762.916L720.39 760.241C719.733 758.975 719.625 754.498 719.522 752.793L720.758 750.286L721.505 750.563C723.445 749.292 723.788 749.123 724.668 747.008Z" fill="#BB242A" fill-opacity="0.568627"/>
<path d="M627.087 581.682C648.917 581.649 678.128 584.335 692.842 603.079L691.522 604.23C676.537 586.456 649.803 582.227 627.78 583.303L627.087 581.682Z" fill="#A31A20" fill-opacity="0.945098"/>
<path d="M919.132 202.461C925.681 226.395 931.809 250.448 940.281 273.799C941.052 275.928 941.431 277.223 941.823 279.483L941.395 280.073C937.039 270.69 932.255 254.383 929.332 244.169C925.561 231 920.963 215.824 917.902 202.534L919.132 202.461Z" fill="#C4282E" fill-opacity="0.894118"/>
<path d="M708.393 287.318L709.393 288.157C707.79 294.054 707.284 298.508 707.935 304.644C706.616 303.27 707.284 302.649 705.615 300.806C702.524 305.697 699.319 310.705 696.324 315.643L695.866 314.929C698.084 309.982 699.319 306.082 700.403 300.8L697.939 299.91C703.494 295.185 704.699 293.637 708.393 287.318Z" fill="#A81C22"/>
<path d="M686.467 501.392C693.414 494.348 699.132 487.778 708.942 484.874C715.262 483.002 722.409 482.453 728.404 485.661L726.916 486.913C707.646 480.042 689.064 494.083 687.039 511.623C686.919 512.697 685.328 516.342 684.919 517.799L683.834 516.857C684.521 512.83 686.461 506.707 687.618 502.624L687.039 502.071L686.467 501.392Z" fill="#AD1D24" fill-opacity="0.937255"/>
<path d="M988.905 334.738C993.797 332.611 1007.37 330.88 1013.9 328.717C1015.51 329.366 1015.91 329.157 1016.4 330.307C1014.68 331.204 1013.66 331.638 1012.19 332.921C1007.92 334.138 999.522 336.517 995.274 337.025C993.966 335.907 989.037 337.819 986.874 338.078L986.019 337.165L986.211 336.444L989.423 335.622L988.905 334.738Z" fill="#B22026" fill-opacity="0.921569"/>
<path d="M728.44 756.021C729.38 760.432 729.892 764.946 730.934 769.26C731 771.574 731.272 773.738 730.506 775.877L729.349 776.148C728.241 775.196 727.325 774.431 726.162 773.557L724.306 774.515C722.691 771.436 724.186 768.796 721.016 763.958C720.637 763.162 720.504 761.228 720.39 760.24L721.516 762.915C724.246 764.108 725.602 763.482 727.747 761.33C728.892 760.179 728.452 757.697 728.44 756.021Z" fill="#C4282E" fill-opacity="0.392157"/>
<path d="M562.769 342.265C562.981 343.548 563.153 346.356 563.926 346.924C564.449 344.648 564.993 340.882 566.432 339.355L567.33 339.442C561.423 357.782 564.748 374.476 550.256 391.803L549.26 390.838C559.655 378.144 564.304 358.32 561.27 342.274L562.769 342.265Z" fill="#A31A20" fill-opacity="0.94902"/>
<path d="M602.327 280.889C601.82 288.646 601.19 292.41 599.667 300.001C600.987 296.907 602.157 293.823 604.1 291.074C601.151 303.796 588.468 319.686 577.541 326.487L576.876 326.898L576.018 325.921C590.652 317.6 601.488 299.567 600.454 282.56L602.327 280.889Z" fill="#A31A20" fill-opacity="0.894118"/>
<path d="M461.466 672.334C477.27 685.115 488.989 699.27 498.207 717.311C499.584 720.011 503.513 727.254 504.378 730.002L503.582 731.026C493.194 708.11 480.403 688.013 459.756 673.135L461.466 672.334Z" fill="#B22026" fill-opacity="0.847059"/>
<path d="M521.311 594.209C540.736 598.994 562.096 626.429 566.051 645.609L564.881 646.79C559.831 625.808 541.599 601.57 520.551 594.91L521.311 594.209Z" fill="#B22026" fill-opacity="0.87451"/>
<path d="M167.88 372.737C170.408 372.272 173.912 372.367 176.581 372.354C191.584 373.526 206.341 375.039 221.211 377.385C223.958 377.818 226.574 378.079 229.355 378.204C227.16 378.269 225.818 378.031 224.16 379.369C205.052 376.515 186.663 375.285 167.88 372.737Z" fill="#BB242A" fill-opacity="0.94902"/>
<path d="M501.912 832.171C493.95 847.591 485.597 866.06 477.476 880.896C478.384 873.966 495.663 840.534 499.877 832.008L501.912 832.171Z" fill="#AD1D24" fill-opacity="0.945098"/>
<path d="M471.49 285.914L473.675 285.17C473.878 285.687 474.127 286.325 474.424 287.084C471.584 297.76 471.04 310.87 468.687 321.284C467.312 327.375 464.716 334.06 462.761 339.32L461.993 337.228C468.314 320.726 467.321 314.879 470.876 298.92C471.355 295.216 472.101 289.545 471.49 285.914Z" fill="#A31A20" fill-opacity="0.968627"/>
<path d="M1033.07 323.949L1036.18 324.425L1036.65 325.135C1034.15 326.37 1033.01 326.607 1031.43 328.796C1025.16 330.141 1018.36 331.444 1012.19 332.919C1013.66 331.636 1014.68 331.203 1016.41 330.305C1015.91 329.156 1015.51 329.365 1013.9 328.715C1020.32 327.255 1026.71 325.666 1033.07 323.949Z" fill="#BB242A" fill-opacity="0.745098"/>
<path d="M1072.74 316.525C1089.14 312.344 1110.6 306.345 1126.83 303.279L1126.94 303.582C1114.78 308.973 1088.38 313.211 1074.05 317.851L1072.74 316.525Z" fill="#BB242A" fill-opacity="0.905882"/>
<path d="M1053.33 319.623L1054.03 321.014L1053.13 323.399C1047.59 324.319 1037.36 327.38 1031.43 328.796C1033.01 326.607 1034.15 326.371 1036.65 325.135L1036.18 324.426L1033.07 323.95C1036.76 322.705 1048.79 320.517 1053.33 319.623Z" fill="#BB242A" fill-opacity="0.462745"/>
<path d="M652.176 58.8887C652.809 61.3662 653.387 69.0191 653.52 71.6204C654.381 88.9455 659.172 93.5481 671.12 105.026C668.421 104.517 666.926 102.823 664.787 101.275C651.646 91.7662 651.14 73.744 652.176 58.8887Z" fill="#AD1D24" fill-opacity="0.945098"/>
<path d="M649.609 258.07L650.646 258.481C642.415 275.749 626.49 286.284 607.329 280.552L607.793 278.758C625.02 286.813 641.644 272.505 649.609 258.07Z" fill="#AD1D24" fill-opacity="0.92549"/>
<path d="M583.896 437.738L585.237 437.923L586.878 439.467C591.066 443.802 602.678 448.446 608.33 453.28L607.649 453.592C599.45 448.952 591.021 447.191 583.744 443.17C582.841 441.451 583.497 439.779 583.896 437.738Z" fill="#B22026" fill-opacity="0.01"/>
<path d="M346.741 732.828C350.954 727.405 355.458 722.644 362.028 720.102C362.746 722.096 362.273 721.596 363.75 722.837C360.736 725.88 357.538 729.243 354.428 732.147L353.078 731.033L353.862 729.098L353.244 728.67C350.84 729.99 349.592 731.424 347.659 733.359L346.741 732.828Z" fill="#A81C22"/>
<path d="M344.542 575.273C351.206 594.106 350.153 597.724 354.032 615.522L353.216 619.191C352.085 606.423 348.247 590.155 342.504 578.663L344.542 575.273Z" fill="#BB242A" fill-opacity="0.960784"/>
<path d="M449.585 241.361C461.333 238.898 472.275 236.209 482.768 230.049C488.008 226.973 492.977 223.248 498.275 220.316C486.509 232.381 467.43 239.622 450.985 242.626L449.585 241.361Z" fill="#BB242A" fill-opacity="0.886275"/>
<path d="M877.189 488.02C885.739 491.412 894.355 494.625 903.037 497.654C908.502 499.571 914.365 501.231 919.595 503.604L918.643 504.233C917.239 504.08 917.071 503.924 915.817 504.601C912.811 502.616 911.22 502.088 907.767 501.011C896.946 497.636 886.492 492.969 875.911 488.881L877.189 488.02Z" fill="#AD1D24" fill-opacity="0.952941"/>
<path d="M709.803 683.917C709.008 681.018 707.525 676.228 707.995 673.414L708.73 673.004C709.231 674.215 709.243 674.299 710.014 675.348L710.677 674.492C711.659 678.06 711.984 681.223 712.755 684.694C713.906 693.034 716.033 702.675 716.919 710.684L716.377 711.027L716.75 712.034L716.943 711.582C713.858 708.75 713.533 688.165 709.803 683.917Z" fill="#C4282E" fill-opacity="0.0392157"/>
<path d="M963.924 334.268C959.332 326.181 944.04 293.345 944.01 286.068C945.576 287.017 947.709 294.11 948.45 296.3C952.819 309.184 958.79 320.782 964.309 333.057L963.924 334.268Z" fill="#BB242A" fill-opacity="0.890196"/>
<path d="M726.837 284.225C734.688 301.749 741.666 307.815 760.435 311.092L759.615 312.246C745.064 314.213 731.067 297.721 726.006 285.579L726.837 284.225Z" fill="#B22026" fill-opacity="0.913725"/>
<path d="M720.727 412.232L721.872 412.164C722.686 415.78 723.626 421.376 726.156 423.954C725.433 424.303 725.138 424.3 724.746 424.838C719.932 430.584 713.491 436.587 707.996 441.721L707.05 440.783C713.166 434.853 718.046 430.459 722.288 422.948C722.011 419.345 721.336 415.795 720.727 412.232Z" fill="#A31A20" fill-opacity="0.972549"/>
<path d="M837.68 487.35L838.716 488.133C824.683 499.967 820.483 506.602 810.638 521.982L809.999 520.94C817.953 506.346 824.912 497.736 837.68 487.35Z" fill="#B22026" fill-opacity="0.894118"/>
<path d="M715.419 585.221C722.167 578.722 740.099 564.488 748.691 562.078L749.462 562.454C747.516 564.054 740.888 567.65 738.074 569.472C730.38 574.466 723.137 580.12 716.425 586.368L715.419 585.221Z" fill="#AD1D24" fill-opacity="0.890196"/>
<path d="M298.816 188.717C294.999 187.389 287.78 185.237 286.644 181.135L287.606 180.374C291.856 179.945 296.919 181.857 299.714 185.252C300.36 186.037 299.635 187.15 299.302 188.006L298.816 188.717Z" fill="#BB242A" fill-opacity="0.352941"/>
<path d="M683.46 266.123C693.329 269.415 706.808 267.443 715.418 261.619L716.883 262.969C702.771 269.323 698.8 271.953 683.044 267.267L683.46 266.123Z" fill="#AD1D24" fill-opacity="0.968627"/>
<path d="M1022.47 546.505C1009.69 541.11 996.835 535.905 983.904 530.893L984.338 530.684C991.171 532.044 1016.31 541.815 1023.31 545.23L1022.47 546.505Z" fill="#B22026" fill-opacity="0.129412"/>
<path d="M751.047 443.768L751.27 444.975C751.655 445.599 751.396 445.454 751.914 445.587L752.619 446.459C742.298 452.159 736.58 461.309 734.447 472.85L732.591 474.107C735.013 462.932 741.539 450.544 751.047 443.768Z" fill="#A31A20" fill-opacity="0.92549"/>
<path d="M956.79 431.03C956.302 428.375 957.706 392.157 958.417 390.275L959.688 390.679C958.086 400.445 958.182 420.819 958.158 431.418L956.79 431.03Z" fill="#C4282E" fill-opacity="0.0313725"/>
<path d="M781.342 469.574L781.517 471.879C773.817 478.803 767.382 487.29 764.315 497.299L762.393 496.205C764.688 488.05 775.166 475.661 781.342 469.574Z" fill="#A31A20" fill-opacity="0.933333"/>
<path d="M810 520.941L810.638 521.983C806.517 531.27 804.161 537.637 802.371 547.854L801.775 546.996C802.028 544.541 802.522 542.63 801.51 540.468L800.727 540.108C803.733 532.713 805.764 527.685 810 520.941Z" fill="#A31A20" fill-opacity="0.984314"/>
<path d="M720.757 750.286C719.817 743.832 718.95 739.289 719.323 732.732C722.655 738.355 723.42 740.584 724.668 747.008C723.788 749.123 723.445 749.292 721.504 750.563L720.757 750.286Z" fill="#BB242A" fill-opacity="0.482353"/>
<path d="M335.987 551.778C339.223 540.884 340.078 533.173 341.646 521.961C342.249 529.228 342.297 536.53 341.79 543.804L341.364 543.997L341.435 544.905C340.887 542.451 340.881 540.83 340.781 538.357C340.014 541.786 338.631 549.002 337.09 551.852L335.987 551.778Z" fill="#BB242A" fill-opacity="0.952941"/>
<path d="M942.702 539.917C952.536 530.145 948.619 532.196 961.513 525.381C956.09 531.277 950.83 535.351 944.618 540.361C943.865 541.064 943.323 541.421 942.497 542.018L941.997 541.592L942.702 539.917Z" fill="#BB242A" fill-opacity="0.0196078"/>
<path d="M357.17 219.223L357.061 216.916L358.107 216.707C359.826 220.997 385.67 231.115 390.266 235.761L389.815 235.434L389.029 235.492C378.642 230.35 367.356 224.697 357.17 219.223Z" fill="#AD1D24" fill-opacity="0.0509804"/>
<path d="M518.32 438.936L519.765 438.475C521.832 451.446 522.051 457.447 519.27 470.512L517.645 469.499C521.058 457.88 520.04 450.407 518.32 438.936Z" fill="#B22026" fill-opacity="0.94902"/>
<path d="M879.171 347.439C880.629 348.79 885.191 352.834 886.257 354.128L885.992 356.329C885.299 356.731 883.449 357.745 883.064 358.282C880.967 356.331 878.828 352.971 877.141 350.54C878.225 348.709 878.183 350.094 879.171 347.439Z" fill="#BB242A" fill-opacity="0.839216"/>
<path d="M966.774 512.037C962.08 497.169 960.592 490.882 960.104 475.531C961.983 481.508 962.393 488.332 963.562 494.573C964.647 500.39 966.213 505.572 967.894 511.252L966.774 512.037Z" fill="#B22026" fill-opacity="0.937255"/>
<path d="M585.128 342.054C586.203 341.921 587.274 341.748 588.336 341.536C598.042 339.516 605.606 329.728 610.745 321.914L611.854 322.034C607.317 329.692 598.746 341.519 589.32 342.83C588.77 342.662 586.196 342.309 585.128 342.054Z" fill="#AD1D24" fill-opacity="0.905882"/>
<path d="M1060.92 559.059C1063.04 559.879 1069.71 563.512 1071.8 564.734L1070.81 565.188C1070.97 565.787 1071.1 566.388 1071.22 566.993C1069.8 567.294 1059.66 562.49 1057.35 561.739L1057.46 560.784C1058.64 559.193 1058.44 559.68 1060.92 559.059Z" fill="#BB242A" fill-opacity="0.0117647"/>
<path d="M1053.33 319.624C1056.21 318.857 1068.6 317.252 1072.74 316.525L1074.05 317.851C1065.6 319.578 1061.41 320.684 1053.13 323.4L1054.03 321.015L1053.33 319.624Z" fill="#B22026" fill-opacity="0.262745"/>
<path d="M627.152 539.134C627.628 538.825 628.116 538.526 628.617 538.24C637.245 533.146 646.283 530.607 656.261 533.161L655.677 533.735C646.193 533.585 636.088 534.976 627.833 539.961L627.152 539.134Z" fill="#A31A20" fill-opacity="0.952941"/>
<path d="M764.237 341.912C766.357 353.129 769.015 362.359 775.998 371.716L775.299 372.548C768.629 365.512 764.441 352.304 762.953 342.783L764.237 341.912Z" fill="#B22026" fill-opacity="0.929412"/>
<path d="M698.059 708.49C697.463 706.881 696.083 705.399 695.872 704.326C697.854 705.718 699.975 707.213 701.837 708.755L702.651 708.49C705.947 714.402 713.418 715.462 712.84 720.891L712.032 721.289C707.471 714.498 704.223 713.829 698.355 708.749L698.059 708.49Z" fill="#B22026" fill-opacity="0.0235294"/>
<path d="M711.243 723.343C707.495 718.54 704.133 715.359 699.469 711.574C697.638 710.092 692.612 706.344 691.865 704.645C693.263 704.669 696.758 707.543 698.059 708.489L698.355 708.748C704.223 713.828 707.471 714.497 712.032 721.288L711.243 723.343Z" fill="#AD1D24" fill-opacity="0.972549"/>
<path d="M440.913 663.102C447.296 664.638 456.51 667.898 461.465 672.333L459.755 673.135C449.426 667.916 448.67 665.801 436.029 664.18C437.745 663.578 438.72 664.096 440.913 663.102Z" fill="#AD1D24" fill-opacity="0.972549"/>
<path d="M425.859 241.814C434.423 242.031 441.03 241.82 449.586 241.359L450.985 242.624C442.722 243.644 428.573 244.191 420.429 242.926C422.791 242.73 423.663 242.794 425.859 241.814Z" fill="#A31A20" fill-opacity="0.968627"/>
<path d="M649.097 296.777L650.302 297.832C642.204 306.436 633.244 311.228 621.646 306.72L621.814 305.388C633.895 309.987 640.583 305.421 649.097 296.777Z" fill="#A31A20" fill-opacity="0.913725"/>
<path d="M722.945 264.186C723.234 265.335 723.336 266.637 724.023 267.361C724.951 273.676 725.041 277.991 726.837 284.225L726.005 285.579C725.041 282.821 723.306 277.011 721.45 274.89C720.842 274.195 719.275 274.611 718.004 274.703L717.763 274.024C718.956 272.863 719.926 273.042 721.83 272.71C723.119 270.651 722.788 267.051 722.945 264.186Z" fill="#AD1D24" fill-opacity="0.988235"/>
<path d="M588.357 355.297C587.491 353.386 587.164 353.452 587.301 351.645C588.798 351.958 589.082 352.844 590.26 354.262C592.695 361.26 594.012 368.597 594.163 376.005L593.067 375.917C592.083 366.957 591.471 363.809 588.357 355.297Z" fill="#2A0807" fill-opacity="0.01"/>
<path d="M721.872 412.164C721.552 410.524 720.944 409.109 721.606 407.926C723.27 410.04 723.625 411.039 724.685 413.434C725.885 416.278 727.602 419.765 727.831 422.757L727.306 423.782L726.156 423.955C723.625 421.376 722.685 415.781 721.872 412.164Z" fill="#AD1D24" fill-opacity="0.01"/>
<path d="M648.133 94.4428C649.543 92.2006 648.952 92.3331 650.904 91.6992C651.893 92.682 652.363 93.0894 652.218 94.8785C651.519 103.414 650.302 105.449 652.049 114.108L651.862 115.405C648.199 108.599 652.26 100.752 648.133 94.4428Z" fill="#A81C22" fill-opacity="0.454902"/>
<path d="M671.747 298.963C680.809 303.753 688.467 304.436 697.939 299.91L700.404 300.8C688.015 305.946 682.834 305.705 671.012 299.732L671.747 298.963Z" fill="#A31A20" fill-opacity="0.964706"/>
<path d="M942.383 539.35L942.703 539.918L941.998 541.593L942.498 542.02C943.323 541.423 943.865 541.065 944.619 540.362L945.45 541.181C938.262 547.037 932.839 552.525 926.066 558.706C928.579 554.369 938.298 544.416 942.383 539.35Z" fill="#AD1D24" fill-opacity="0.972549"/>
<path d="M593.975 383.08L594.797 383.16C594.886 394.4 594.665 404.359 591.083 415.188C590.816 413.713 593.699 387.36 593.975 383.08Z" fill="#B22026" fill-opacity="0.054902"/>
<path d="M484.249 62.703C479.751 54.0877 473.361 44.0879 469.417 35.623C472.096 36.7985 483.357 57.9271 485.12 61.6847L484.249 62.703Z" fill="#C4282E" fill-opacity="0.839216"/>
<path d="M508.567 813.504L509.951 814.215C506.938 820.193 504.52 826.008 501.912 832.172L499.877 832.009C502.285 824.989 505.088 820.06 508.567 813.504Z" fill="#A31A20"/>
<path d="M586.193 232.891C595.128 236.737 599.716 235.442 609.185 233.241L609.721 234.377C599.698 238.354 593.527 236.901 583.718 233.976L586.193 232.891Z" fill="#A31A20" fill-opacity="0.952941"/>
<path d="M747.619 406.32L748.619 406.843C747.028 415.644 745.275 423.793 749.492 432.091L748.836 432.509C742.798 425.411 745.757 414.453 747.619 406.32Z" fill="#B22026" fill-opacity="0.917647"/>
<path d="M466.889 282.369L466.545 280.914C467.904 281.109 470.123 284.575 471.49 285.914C472.101 289.546 471.356 295.217 470.877 298.921L470.01 298.427C470.284 293.653 469.255 286.631 466.889 282.369Z" fill="#2A0807" fill-opacity="0.0352941"/>
<path d="M593.881 481.651C595.958 472.43 595.516 469.915 592.393 461.389C598.665 463.35 596.186 479.654 594.78 484.149L593.881 481.651Z" fill="#A31A20" fill-opacity="0.933333"/>
<path d="M960.695 366.783L961.954 368.741C961.195 376.029 960.363 383.389 959.688 390.678L958.417 390.274C959.321 382.734 959.785 374.611 960.695 366.783Z" fill="#AD1D24" fill-opacity="0.929412"/>
<path d="M571.509 408.906C575.369 414.461 579.763 426.055 579.887 432.835L578.835 432.839C577.525 424.261 574.827 416.892 570.559 409.356L571.509 408.906Z" fill="#B22026" fill-opacity="0.882353"/>
<path d="M147.738 369.389C152.342 370.038 174.44 371.754 176.581 372.353C173.912 372.367 170.408 372.271 167.88 372.737C161.025 372.022 155.062 371.907 148.165 370.779L148.422 370.267L147.738 369.389Z" fill="#C4282E" fill-opacity="0.407843"/>
<path d="M461.993 337.229L462.762 339.321C459.882 345.392 456.51 352.746 452.893 358.412L452.984 355.553C455.914 349.168 459.002 344.283 461.993 337.229Z" fill="#A31A20" fill-opacity="0.823529"/>
<path d="M547.285 545.424C555.818 542.737 560.754 542.446 569.234 545.959L567.975 546.768C561.269 544.022 554.98 544.579 548.291 546.617L547.285 545.424Z" fill="#A31A20" fill-opacity="0.956863"/>
<path d="M125.855 366.678L147.738 369.387L148.421 370.266L148.165 370.778C140.647 369.549 131.547 368.666 123.896 367.886L125.855 366.678Z" fill="#C4282E" fill-opacity="0.682353"/>
<path d="M357.896 659.156C357.935 668.521 357.798 675.233 357.013 684.525C356.743 683.591 356.119 682.061 355.757 681.097C356.267 676.776 356.652 668.665 356.686 664.32L357.896 659.156Z" fill="#B22026" fill-opacity="0.921569"/>
<path d="M627.152 513.517C626.255 506.985 625.797 503.857 621.163 498.8C619.578 497.067 618.5 496.087 617.512 493.963L618.289 493.668C622.157 495.464 628.297 505.764 628.171 510.421L627.387 509.844C627.315 511.045 627.261 512.327 627.152 513.517Z" fill="#B22026" fill-opacity="0.929412"/>
<path d="M645.319 322.212C647.844 319.411 651.622 314.868 654.592 312.844L655.346 312.874C654.785 318.611 650.104 318.898 647.223 322.771C646.163 323.021 646.693 322.95 645.319 322.212Z" fill="#A81C22" fill-opacity="0.0431373"/>
<path d="M627.418 221.533L628.557 222.494C622.52 227.161 616.796 231.319 609.722 234.376L609.186 233.24C615.283 230.364 622.423 226.077 627.418 221.533Z" fill="#BB242A" fill-opacity="0.847059"/>
<path d="M104.25 365.2C111.723 364.912 118.429 365.932 125.856 366.678L123.896 367.886C118.941 366.861 109.471 366.701 104.148 366.505L104.25 365.2Z" fill="#C4282E" fill-opacity="0.905882"/>
<path d="M967.515 107.303L967.937 107.665C965.274 112.224 959.285 117.132 955.212 120.649L954.76 120.215C955.145 117.745 965.202 109.356 967.515 107.303Z" fill="#BB242A" fill-opacity="0.839216"/>
<path d="M535.268 171.965C536.426 169.987 536.742 169.281 538.428 167.762L539.915 168.116C541.98 170.397 544.251 172.761 545.951 175.303L545.15 176.101C543.11 174.102 540.344 170.745 537.402 171.571L535.268 171.965Z" fill="#AD1D24" fill-opacity="0.980392"/>
<path d="M588.18 423.105L589.263 419.969L589.7 420.462C588.633 426.545 587.022 432.032 585.237 437.922L583.896 437.738C585.065 432.903 586.712 427.881 588.18 423.105Z" fill="#AD1D24" fill-opacity="0.0705882"/>
<path d="M705.615 300.807C707.284 302.651 706.615 303.271 707.935 304.645C708.682 308.761 709.254 310.961 710.526 314.953L710.056 316.767C707.218 311.368 705.458 306.883 705.615 300.807Z" fill="#AD1D24" fill-opacity="0.988235"/>
<path d="M557.556 527.297C561.823 523.062 564.438 519.988 568.256 515.318L569.557 516.561C566.035 520.299 562.628 524.143 559.34 528.087L557.556 527.297Z" fill="#A31A20" fill-opacity="0.917647"/>
<path d="M647.211 80.4426C647.036 73.4821 646.819 66.5228 646.572 59.5645C648.332 64.8078 648.488 72.2378 648.796 77.8551L647.211 80.4426Z" fill="#A31A20" fill-opacity="0.945098"/>
<path d="M569.233 545.961C574.658 548.467 581.894 551.812 586.235 555.908L585.657 556.838C578.752 551.525 575.841 550.142 567.975 546.77L569.233 545.961Z" fill="#A31A20" fill-opacity="0.823529"/>
<path d="M272.907 382.448C276.644 381.771 280.417 382.05 284.217 382.169L290.795 382.809L290.352 383.641L285.447 383.909C283.523 383.923 279.72 383.548 277.659 383.413C276.188 383.287 274.374 382.792 272.907 382.448Z" fill="#AD1D24" fill-opacity="0.027451"/>
<path d="M308.503 392.273C312.117 397.243 315.604 401.401 318.764 406.713L317.642 407.116C314.4 401.816 311.262 397.579 306.763 393.286L308.503 392.273Z" fill="#AD1D24" fill-opacity="0.87451"/>
<path d="M718.642 326.361C723.113 330.563 727.15 331.888 733.133 333.354L733.446 334.794C726.638 333.285 722.962 332.25 718.021 327.39L718.642 326.361Z" fill="#A31A20" fill-opacity="0.92549"/>
<path d="M880.37 373.183C883.129 368.15 884.594 366.949 889.287 363.551C887.606 366.196 885.528 368.987 883.696 371.563C882.702 372.869 880.996 375.692 879.779 375.917C879.96 374.964 880.087 374.112 880.37 373.183Z" fill="#AD1D24" fill-opacity="0.0117647"/>
<path d="M957.345 447.35C957.507 444.498 956.935 440.851 957.766 438.352L958.634 439.16C958.676 443.65 959.212 453.166 959.062 456.9L958.092 457.942C957.875 454.396 957.525 450.949 957.345 447.35Z" fill="#BB242A" fill-opacity="0.886275"/>
<path d="M466.889 282.369C469.255 286.631 470.284 293.653 470.01 298.427L469.63 298.859C469.121 298.293 466.889 285.415 466.32 283.204L466.889 282.369Z" fill="#A31A20" fill-opacity="0.937255"/>
<path d="M737.677 349.363C738.243 348.328 738.581 346.578 738.888 345.357C739.31 349.684 740.009 356.424 740.93 360.648L739.557 360.578C738.526 356.18 738.123 353.855 737.677 349.363Z" fill="#AD1D24" fill-opacity="0.952941"/>
<path d="M270.796 380.166C273.992 380.459 284.233 380.639 286.096 381.125L284.216 382.167C280.417 382.048 276.644 381.77 272.907 382.446L270.796 380.166Z" fill="#AD1D24" fill-opacity="0.909804"/>
<path d="M708.394 287.32C710.147 283.575 712.099 278.489 713.684 274.619C715.154 275.01 714.479 275.075 715.781 274.605C713.232 279.495 711.388 283.009 709.394 288.158L708.394 287.32Z" fill="#A31A20" fill-opacity="0.92549"/>
<path d="M570.885 400.972C574.934 401.555 577.158 399.024 579.616 399.507C580.214 402.161 579.93 402.824 581.677 404.414C576.01 403.055 576.915 401.95 570.59 401.777L570.885 400.972Z" fill="#AD1D24" fill-opacity="0.956863"/>
<path d="M542.126 166.92C544.502 170.488 545.961 172.718 547.908 176.584L547.705 177.144L545.951 175.303C544.251 172.761 541.981 170.397 539.915 168.116C541.045 167.902 541.183 167.632 542.126 166.92Z" fill="#2A0807" fill-opacity="0.0117647"/>
<path d="M316.553 395.072C318.919 400.599 320.211 402.934 321.801 408.813C320.14 406.867 316.892 399.007 315.745 396.275L316.553 395.072Z" fill="#B22026" fill-opacity="0.870588"/>
<path d="M617.108 309.12L618.615 308.639C620.416 313.128 621.766 316.155 620.434 320.974C618.494 317.434 619.133 313.212 617.108 309.12Z" fill="#AD1D24" fill-opacity="0.976471"/>
<path d="M795.394 87.2589C796.599 83.3776 797.593 79.4686 799.714 76.0098L800.069 76.1417C798.943 80.8437 796.87 86.4509 796.026 90.6768L795.394 87.2589Z" fill="#AD1D24" fill-opacity="0.933333"/>
<path d="M766.02 409.869L767.237 410.633C765.55 415.414 764.7 417.957 763.616 422.974L762.254 422.638C763.429 418.282 764.489 414.126 766.02 409.869Z" fill="#A31A20" fill-opacity="0.909804"/>
<path d="M545.113 523.195C546.288 525.648 545.129 527.062 546.17 528.889C546.058 530.807 545.671 535.612 545.82 537.285L543.787 536.306C544.672 531.61 544.832 527.927 545.113 523.195Z" fill="#A31A20" fill-opacity="0.945098"/>
<path d="M710.526 314.953C712.936 319.377 715.135 322.691 718.642 326.361L718.021 327.389C714.876 324.44 712.171 320.509 710.056 316.767L710.526 314.953Z" fill="#B22026" fill-opacity="0.8"/>
<path d="M605.986 347.172L606.672 349.309C603.099 350.842 597.493 352.528 593.805 353.427C597.859 351.03 601.968 349.517 605.986 347.172Z" fill="#AD1D24" fill-opacity="0.952941"/>
<path d="M531.06 152.746C531.69 152.296 532.274 151.803 532.858 151.293C533.65 152.166 533.56 152.828 533.663 154.02C533.493 156.081 533.347 158.144 533.086 160.195L531.482 157.634L531.06 152.746Z" fill="#AD1D24" fill-opacity="0.819608"/>
<path d="M720.45 451.635C721.969 446.242 723.559 443.497 726.53 438.768L726.849 440.663C723.62 445.321 722.854 447.252 721.481 452.772L720.45 451.635Z" fill="#A31A20" fill-opacity="0.890196"/>
<path d="M752.902 395.6L753.981 396.134C752.547 398.476 749.155 404.196 748.618 406.845L747.618 406.322C747.938 403.093 751.107 398.482 752.902 395.6Z" fill="#A31A20" fill-opacity="0.933333"/>
<path d="M1099.4 577.906C1103.55 578.455 1111.13 581.683 1114.75 583.876C1111.37 583.425 1102.21 580.039 1099.4 577.906Z" fill="#BB242A" fill-opacity="0.772549"/>
<path d="M958.092 457.942L959.062 456.9C959.562 460.712 960.381 465.798 959.652 469.57C958.477 466.062 958.435 461.736 958.092 457.942Z" fill="#BB242A" fill-opacity="0.407843"/>
<path d="M290.795 382.809C293.595 382.918 296.216 382.843 298.88 383.649C296.654 385.064 288.037 384.451 285.447 383.908L290.352 383.64L290.795 382.809Z" fill="#A81C22" fill-opacity="0.129412"/>
<path d="M722.565 389.975C722.017 387.605 720.962 380.245 720.384 378.654C721.673 381.913 722.83 384.593 724.035 388.116L722.565 389.975Z" fill="#AD1D24" fill-opacity="0.94902"/>
<path d="M573.275 440.524L574.817 433.591L575.346 433.288L575.537 431.893C575.518 435.223 574.719 441.548 574.841 443.575L573.275 440.524Z" fill="#A31A20" fill-opacity="0.929412"/>
<path d="M956.79 431.029L958.158 431.417C958.182 434.48 958.23 436.122 958.634 439.159L957.766 438.351C956.935 440.85 957.507 444.498 957.344 447.35C956.639 443.234 956.814 435.54 956.79 431.029Z" fill="#BB242A" fill-opacity="0.756863"/>
<path d="M695.867 314.93L696.325 315.644C695.222 319.362 694.77 321.007 693.005 324.408L692.155 324.507L692.763 324.806L692.354 325.366L691.92 325.256C692.402 321.728 694.33 318.193 695.867 314.93Z" fill="#A31A20" fill-opacity="0.913725"/>
<path d="M535.267 171.964L537.401 171.57C535.806 173.978 533.036 178.433 531.278 180.496L530.23 180.158L531.403 178.093L535.267 171.964Z" fill="#AD1D24" fill-opacity="0.803922"/>
<path d="M672.627 261.102C676.453 263.102 679.345 264.71 683.46 266.122L683.044 267.267C678.405 265.368 675.904 264.122 671.578 261.764L672.627 261.102Z" fill="#A31A20" fill-opacity="0.772549"/>
<path d="M356.751 652.219C356.456 649.496 355.862 645.175 355.922 642.584L356.661 642.096C356.484 641.264 356.698 641.602 356.004 641.089L356.295 640.68L356.675 641.704L356.037 641.945L356.042 642.265L356.919 642.735C357.365 645.808 357.733 648.893 358.024 651.99L356.751 652.219Z" fill="#B22026" fill-opacity="0.917647"/>
<path d="M792.996 122.525C793.942 124.471 794.659 131.294 794.382 133.614C793.207 131.18 792.562 126.701 792.086 123.893L792.996 122.525Z" fill="#A81C22" fill-opacity="0.894118"/>
<path d="M593.714 490.54C597.276 488.327 598.042 487.704 602.368 488.125L602.166 488.73C599.528 489.65 597.233 490.542 594.647 491.602L593.714 490.54Z" fill="#AD1D24" fill-opacity="0.960784"/>
<path d="M529.239 177.27L531.404 178.093L530.231 180.158L525.108 187.622C526.421 184.146 527.798 180.694 529.239 177.27Z" fill="#AD1D24" fill-opacity="0.0156863"/>
<path d="M354.031 615.521C354.366 618.414 355.015 623.548 354.916 626.278L354.308 626.892L354.601 627.543L354.029 625.747L354.814 627.115C353.51 625.151 353.47 621.716 353.216 619.191L354.031 615.521Z" fill="#B22026" fill-opacity="0.627451"/>
<path d="M716.359 371.025C716.395 375.708 716.745 387.132 716.184 391.251L715.594 392.851L715.377 390.725C716.648 386.071 715.015 377.395 716.359 371.025Z" fill="#AD1D24" fill-opacity="0.619608"/>
<path d="M104.148 366.505C101.759 366.607 96.9274 366.536 94.8125 365.597L96.0224 365.086L95.3548 365.98L95.8953 365.12C97.4709 364.925 102.488 365.126 104.249 365.2L104.148 366.505Z" fill="#C4282E" fill-opacity="0.196078"/>
<path d="M356.751 652.219L358.024 651.99C358.016 653.611 358.085 657.757 357.895 659.155L356.686 664.319C356.569 660.686 356.784 656.046 356.751 652.219Z" fill="#BB242A" fill-opacity="0.231373"/>
<path d="M652.978 157.377L653.918 157.907C654.267 161.818 654.496 164.09 654.255 167.973L654.002 168.162C653.158 166.552 653.086 159.716 652.978 157.377Z" fill="#AD1D24" fill-opacity="0.709804"/>
<path d="M751.27 444.975C753.101 443.574 755.023 441.803 757.458 442.237C756.668 443.932 753.818 444.79 751.914 445.588C751.396 445.454 751.655 445.599 751.27 444.975Z" fill="#A81C22" fill-opacity="0.0941176"/>
<path d="M818.64 362.865C819.453 363.606 823.351 367.05 823.737 367.698L823.219 369.289C821.188 367.135 819.561 365.572 817.368 363.581L818.64 362.865Z" fill="#A31A20" fill-opacity="0.839216"/>
<path d="M593.067 375.918L594.163 376.006C594.543 378.75 594.782 380.375 594.797 383.161L593.975 383.081C593.586 381.395 593.277 377.791 593.067 375.918Z" fill="#AD1D24" fill-opacity="0.168627"/>
</svg>
